<?xml version="1.0" standalone="no"?>
<!DOCTYPE svg PUBLIC "-//W3C//DTD SVG 20010904//EN"
 "http://www.w3.org/TR/2001/REC-SVG-20010904/DTD/svg10.dtd">
<svg version="1.0" xmlns="http://www.w3.org/2000/svg"
 width="1024.000000pt" height="1024.000000pt" viewBox="0 0 1024.000000 1024.000000"
 preserveAspectRatio="xMidYMid meet">
<metadata>
Created by potrace 1.11, written by Peter Selinger 2001-2013
</metadata>
<g transform="translate(0.000000,1024.000000) scale(0.100000,-0.100000)"
fill="#000000" stroke="none">
<path d="M3261 7939 c-298 -15 -589 -58 -783 -114 -319 -92 -510 -253 -512
-430 l-1 -60 1364 -2245 c750 -1235 1458 -2400 1573 -2590 115 -190 213 -346
218 -348 5 -2 14 7 21 20 6 13 139 232 294 488 155 256 443 731 640 1055 197
325 434 716 528 870 356 586 1519 2506 1664 2748 l35 57 -39 76 c-88 175 -235
277 -516 358 -273 79 -623 118 -1082 119 -298 0 -422 -13 -695 -74 -179 -40
-511 -152 -685 -229 -77 -35 -151 -63 -165 -63 -14 0 -86 27 -161 61 -260 116
-647 234 -909 276 -221 36 -442 43 -789 25z m714 -333 c55 -9 164 -32 243 -51
219 -53 547 -164 526 -178 -21 -12 -218 -88 -316 -121 -275 -92 -515 -135
-788 -143 -520 -14 -997 82 -1257 254 -29 19 -53 39 -53 44 0 13 108 65 196
95 155 52 419 95 696 114 193 13 636 5 753 -14z m3185 -10 c307 -41 573 -118
718 -210 l41 -26 -108 -177 c-60 -98 -166 -272 -236 -388 -70 -115 -129 -212
-131 -214 -2 -2 -44 15 -93 38 -205 95 -476 139 -951 157 -273 10 -482 -17
-762 -97 -217 -63 -364 -121 -613 -245 -265 -131 -415 -191 -599 -239 -217
-57 -307 -69 -531 -68 -358 0 -631 52 -838 161 -111 57 -141 94 -307 370 -84
139 -151 255 -149 256 2 2 64 -12 137 -30 286 -72 703 -108 1010 -86 492 35
905 165 1472 462 324 170 780 305 1190 354 90 10 631 -3 750 -18z m-518 -1147
c178 -12 337 -38 461 -74 90 -26 167 -60 167 -73 0 -4 -22 -43 -49 -87 -169
-280 -523 -861 -526 -864 -2 -2 -37 8 -77 23 -145 52 -273 73 -530 86 -200 11
-346 1 -496 -31 -168 -36 -363 -106 -544 -196 -204 -100 -306 -141 -448 -178
-200 -52 -540 -44 -738 17 -89 27 -171 69 -203 105 -30 32 -432 693 -426 699
2 3 33 -2 68 -10 209 -48 643 -72 855 -47 323 38 648 143 989 321 211 110 391
182 610 244 86 24 272 61 345 69 80 9 399 6 542 -4z m-349 -1324 c111 -17 205
-39 219 -53 5 -5 -104 -195 -267 -463 -152 -249 -277 -454 -278 -456 -2 -1
-27 4 -57 12 -30 8 -99 19 -152 24 -271 30 -446 -3 -730 -136 -187 -87 -270
-107 -413 -100 -119 5 -231 34 -257 64 -16 20 -428 697 -428 705 0 3 21 1 48
-3 95 -17 384 -22 492 -10 224 26 456 103 721 238 188 96 428 174 609 197 66
8 395 -4 493 -19z m-507 -1258 c4 -4 -149 -260 -609 -1015 -28 -45 -54 -81
-59 -80 -4 2 -124 194 -266 428 l-259 425 101 7 c176 12 307 49 486 138 91 45
179 78 265 99 39 10 331 8 341 -2z"/>
</g>
</svg>
