<svg xmlns="http://www.w3.org/2000/svg" xmlns:xlink="http://www.w3.org/1999/xlink" viewBox="0 0 920 520"><defs><linearGradient id="a" x1="-707.96" y1="324.1" x2="-709.11" y2="324.1" gradientTransform="translate(567290 -609) scale(800 2)" gradientUnits="userSpaceOnUse"><stop offset="0" stop-color="#f6f8fa" stop-opacity="0"/><stop offset="0.5" stop-color="#e3e7eb"/><stop offset="1" stop-color="#f6f8fa" stop-opacity="0"/></linearGradient></defs><title>browser</title><path d="M4.6,1.25H915.4a4.61,4.61,0,0,1,4.6,4.6v508.3a4.61,4.61,0,0,1-4.6,4.6H4.6a4.61,4.61,0,0,1-4.6-4.6V5.85A4.61,4.61,0,0,1,4.6,1.25Z" style="fill:#fff"/><path d="M4.6,1.25H915.4a4.61,4.61,0,0,1,4.6,4.6v508.3a4.61,4.61,0,0,1-4.6,4.6H4.6a4.61,4.61,0,0,1-4.6-4.6V5.85A4.61,4.61,0,0,1,4.6,1.25Z" style="fill:#fafafa"/><circle cx="41.4" cy="19.65" r="4.6" style="fill:#ff6d8b"/><circle cx="59.8" cy="19.65" r="4.6" style="fill:#ffcb4f"/><circle cx="78.2" cy="19.65" r="4.6" style="fill:#7ce8dd"/><path d="M0,38.05H920v2.3H0Z" style="fill:url(#a)"/><path d="M853.3,17.35h27.6V22H853.3Z" style="fill:#e3e7eb"/><path d="M688,447H232a55.36,55.36,0,0,1-55.2-55.2V128.21A55.36,55.36,0,0,1,232,73H688.05a55.36,55.36,0,0,1,55.2,55.2V391.79A55.37,55.37,0,0,1,688,447Z" style="fill:none;stroke:#ccc;stroke-miterlimit:10;stroke-width:5px;stroke-dasharray:11.946999549865723,11.946999549865723"/><text transform="translate(259.22 397.52)" style="isolation:isolate;font-size:24.149999618530273px;fill:#888;font-family:Vision-Bold, Vision;font-weight:700"><tspan style="letter-spacing:-0.03000452945945423em">Dr</tspan><tspan x="23.79" y="0" style="letter-spacing:-0.05000080953721719em">a</tspan><tspan x="36.27" y="0">g </tspan><tspan x="56.24" y="0" style="letter-spacing:-0.03000452945945423em">an</tspan><tspan x="82.13" y="0" style="letter-spacing:0.00002021868561957832em">d </tspan><tspan x="102.2" y="0" style="letter-spacing:-0.03000452945945423em">D</tspan><tspan x="116.69" y="0" style="letter-spacing:-0.05998884023328888em">r</tspan><tspan x="125.26" y="0">op </tspan><tspan x="159.75" y="0" style="letter-spacing:-0.09998140038881478em">Y</tspan><tspan x="172.67" y="0" style="letter-spacing:-0.029984310773834653em">o</tspan><tspan x="186.39" y="0">ur </tspan><tspan x="216.14" y="0" style="letter-spacing:-0.04998059085159761em">F</tspan><tspan x="228.53" y="0">i</tspan><tspan x="235.44" y="0" style="letter-spacing:-0.050021028222836765em">l</tspan><tspan x="242.29" y="0" style="letter-spacing:0.00004043737123915664em">e </tspan><tspan x="261.52" y="0" style="letter-spacing:-0.03000452945945423em">o</tspan><tspan x="275.23" y="0">r C</tspan><tspan x="306.17" y="0" style="letter-spacing:-0.030044966830693385em">l</tspan><tspan x="313.51" y="0" style="letter-spacing:-0.019976061392143384em">i</tspan><tspan x="319.94" y="0" style="letter-spacing:-0.03000452945945423em">c</tspan><tspan x="331.87" y="0">k He</tspan><tspan x="379.8" y="0" style="letter-spacing:-0.06000905891890846em">r</tspan><tspan x="388.38" y="0">e</tspan></text><path d="M524.86,182.38V314.74A19.24,19.24,0,0,1,505.66,334H414.23A19.25,19.25,0,0,1,395,314.74V182.38a19.25,19.25,0,0,1,19.21-19.21h91.43A19.25,19.25,0,0,1,524.86,182.38Zm-17.25,22H412.39a2.07,2.07,0,0,0,0,4.14h95.1a2.06,2.06,0,0,0,2.07-2.07A2,2,0,0,0,507.61,204.34Zm2.07,23.34a2.06,2.06,0,0,1-2.07,2.07H412.39a2.07,2.07,0,0,1,0-4.14H507.5A2.17,2.17,0,0,1,509.68,227.68Zm0,21.28a2.06,2.06,0,0,1-2.07,2.07H412.39a2.07,2.07,0,1,1,0-4.14H507.5A2.09,2.09,0,0,1,509.68,249Zm0,21.16a2.06,2.06,0,0,1-2.07,2.07H412.39a2.07,2.07,0,0,1,0-4.14H507.5A2.09,2.09,0,0,1,509.68,270.12Zm0,21.16a2.06,2.06,0,0,1-2.07,2.07H412.39a2.07,2.07,0,1,1,0-4.14H507.5A2.16,2.16,0,0,1,509.68,291.28Zm0,21.28h0a2.05,2.05,0,0,1-2.07,2.06H412.39a2.05,2.05,0,0,1-2.07-2.06h0a2.06,2.06,0,0,1,2.07-2.07H507.5A2.16,2.16,0,0,1,509.68,312.56Z" style="fill:none;stroke:#ccc;stroke-miterlimit:10;stroke-width:5px"/></svg>