<svg xmlns="http://www.w3.org/2000/svg" xmlns:xlink="http://www.w3.org/1999/xlink" viewBox="0 0 920 520"><defs><linearGradient id="a" x1="-911.78" y1="187.5" x2="-912.78" y2="187.5" gradientTransform="matrix(800, 0, 0, -2, 730286, 443)" gradientUnits="userSpaceOnUse"><stop offset="0" stop-color="#f6f8fa" stop-opacity="0"/><stop offset="0.5" stop-color="#e3e7eb"/><stop offset="1" stop-color="#f6f8fa" stop-opacity="0"/></linearGradient></defs><title>browser-1</title><g style="isolation:isolate"><path d="M64,35H856a4,4,0,0,1,4,4V481a4,4,0,0,1-4,4H64a4,4,0,0,1-4-4V39A4,4,0,0,1,64,35Z" style="fill:#fff"/><image width="848" height="498" transform="translate(36 21)" xlink:href="browser-11.png" style="opacity:0.25;mix-blend-mode:multiply"/><rect x="60" y="35" width="800" height="450" rx="4" ry="4" style="fill:#fafafa"/><circle cx="96" cy="51" r="4" style="fill:#ff6d8b"/><circle cx="112" cy="51" r="4" style="fill:#ffcb4f"/><circle cx="128" cy="51" r="4" style="fill:#7ce8dd"/><path d="M60,67H860v2H60Z" style="fill:url(#a)"/><path d="M802,49h24v4H802Z" style="fill:#e3e7eb"/><path d="M658.3,422.6H261.7a48.14,48.14,0,0,1-48-48V145.4a48.14,48.14,0,0,1,48-48H658.3a48.14,48.14,0,0,1,48,48V374.6A48.14,48.14,0,0,1,658.3,422.6Z" style="fill:none;stroke:#ccc;stroke-miterlimit:10;stroke-width:5px;stroke-dasharray:11.946999549865723,11.946999549865723"/><text transform="translate(285.41 379.58)" style="isolation:isolate;font-size:21px;fill:#888;font-family:Vision-Bold, Vision;font-weight:700"><tspan style="letter-spacing:-0.03001767113095238em">Dr</tspan><tspan x="20.68" y="0" style="letter-spacing:-0.049990699404761904em">a</tspan><tspan x="31.54" y="0" style="letter-spacing:0.000023251488095238094em">g </tspan><tspan x="48.91" y="0" style="letter-spacing:-0.029994419642857144em">an</tspan><tspan x="71.42" y="0" style="letter-spacing:0.000023251488095238094em">d </tspan><tspan x="88.87" y="0" style="letter-spacing:-0.03001767113095238em">D</tspan><tspan x="101.47" y="0" style="letter-spacing:-0.05998883928571429em">r</tspan><tspan x="108.93" y="0">op </tspan><tspan x="138.91" y="0" style="letter-spacing:-0.09998139880952381em">Y</tspan><tspan x="150.15" y="0" style="letter-spacing:-0.029994419642857144em">o</tspan><tspan x="162.08" y="0">ur </tspan><tspan x="187.95" y="0" style="letter-spacing:-0.049990699404761904em">F</tspan><tspan x="198.72" y="0">i</tspan><tspan x="204.73" y="0" style="letter-spacing:-0.049990699404761904em">l</tspan><tspan x="210.69" y="0">e </tspan><tspan x="227.41" y="0" style="letter-spacing:-0.029994419642857144em">o</tspan><tspan x="239.33" y="0">r C</tspan><tspan x="266.24" y="0" style="letter-spacing:-0.029994419642857144em">l</tspan><tspan x="272.62" y="0" style="letter-spacing:-0.01999627976190476em">i</tspan><tspan x="278.21" y="0" style="letter-spacing:-0.029994419642857144em">c</tspan><tspan x="288.58" y="0">k He</tspan><tspan x="330.26" y="0" style="letter-spacing:-0.05998883928571429em">r</tspan><tspan x="337.72" y="0">e</tspan></text><path d="M516.4,192.5V307.6a16.73,16.73,0,0,1-16.7,16.7H420.2a16.73,16.73,0,0,1-16.7-16.7V192.5a16.73,16.73,0,0,1,16.7-16.7h79.5A16.73,16.73,0,0,1,516.4,192.5Zm-15,19.1H418.6a1.8,1.8,0,0,0,0,3.6h82.7a1.79,1.79,0,0,0,1.8-1.8A1.77,1.77,0,0,0,501.4,211.6Zm1.8,20.3a1.79,1.79,0,0,1-1.8,1.8H418.6a1.8,1.8,0,0,1,0-3.6h82.7A1.88,1.88,0,0,1,503.2,231.9Zm0,18.5a1.79,1.79,0,0,1-1.8,1.8H418.6a1.8,1.8,0,0,1,0-3.6h82.7A1.81,1.81,0,0,1,503.2,250.4Zm0,18.4a1.79,1.79,0,0,1-1.8,1.8H418.6a1.8,1.8,0,0,1,0-3.6h82.7A1.81,1.81,0,0,1,503.2,268.8Zm0,18.4a1.79,1.79,0,0,1-1.8,1.8H418.6a1.8,1.8,0,0,1,0-3.6h82.7A1.88,1.88,0,0,1,503.2,287.2Zm0,18.5h0a1.79,1.79,0,0,1-1.8,1.8H418.6a1.79,1.79,0,0,1-1.8-1.8h0a1.79,1.79,0,0,1,1.8-1.8h82.7A1.88,1.88,0,0,1,503.2,305.7Z" style="fill:none;stroke:#ccc;stroke-miterlimit:10;stroke-width:5px"/></g></svg>