<?xml version="1.0" encoding="utf-8"?>
<!-- Generator: Adobe Illustrator 22.1.0, SVG Export Plug-In . SVG Version: 6.00 Build 0)  -->
<svg version="1.1" id="Layer_1" xmlns="http://www.w3.org/2000/svg" xmlns:xlink="http://www.w3.org/1999/xlink" x="0px" y="0px"
	 viewBox="0 0 920 520" style="enable-background:new 0 0 920 520;" xml:space="preserve">
<style type="text/css">
	.st0{fill:#FFFFFF;}
	.st1{fill:#FAFAFA;}
	.st2{display:none;fill:#FFFFFF;}
	.st3{display:none;}
	.st4{display:inline;}
	.st5{fill:#AAAAAA;}
	.st6{font-family:'OpenSans-Bold';}
	.st7{font-size:13px;}
	.st8{fill:#333333;}
	.st9{fill:#FF6D8B;}
	.st10{fill:#FFCB4F;}
	.st11{fill:#7CE8DD;}
	.st12{fill:url(#SVGID_1_);}
	.st13{fill:#E3E7EB;}
	.st14{display:inline;fill:#F6F8FA;}
	.st15{display:inline;fill:#E3E7EB;}
	.st16{fill:none;stroke:#CCCCCC;stroke-width:5;stroke-miterlimit:10;stroke-dasharray:11.947,11.947;}
	.st17{fill:#888888;}
	.st18{font-family:'Vision-Bold';}
	.st19{font-size:21px;}
	.st20{fill:none;stroke:#CCCCCC;stroke-width:5;stroke-miterlimit:10;}
</style>
<g>
	<path class="st0" d="M64,35h792c2.2,0,4,1.8,4,4v442c0,2.2-1.8,4-4,4H64c-2.2,0-4-1.8-4-4V39C60,36.8,61.8,35,64,35z"/>
</g>
<g>
	
		<image style="overflow:visible;opacity:0.25;" width="848" height="498" xlink:href="B31FDD533A004F9B.png"  transform="matrix(1 0 0 1 36 21)">
	</image>
	<g>
		<path class="st1" d="M64,35h792c2.2,0,4,1.8,4,4v442c0,2.2-1.8,4-4,4H64c-2.2,0-4-1.8-4-4V39C60,36.8,61.8,35,64,35z"/>
	</g>
</g>
<path class="st2" d="M253,202h122v122H253V202z M107,202h122v122H107V202z M399,202h122v122H399V202z M545,202h122v122H545V202z
	 M691,202h122v122H691V202z"/>
<g class="st3">
	<g class="st4">
		<g>
			<g>
				<g>
					<rect x="180.5" y="388.5" class="st0" width="559" height="59.2"/>
					<g>
						<g>
							<text transform="matrix(1 0 0 1 658.3088 410.9964)" class="st5 st6 st7">Color</text>
							<text transform="matrix(1 0 0 1 647.3589 432.4377)" class="st8 st6 st7">#6F9D7B</text>
						</g>
						<g>
							<text transform="matrix(1 0 0 1 216.49 410.9967)" class="st5 st6 st7">Rule Type</text>
							<text transform="matrix(1 0 0 1 219.3081 432.438)" class="st8 st6 st7">Contains</text>
						</g>
						<g>
							<text transform="matrix(1 0 0 1 431.3272 410.9968)" class="st5 st6 st7">Contains</text>
							<text transform="matrix(1 0 0 1 422.6629 432.4381)" class="st8 st6 st7">Greenwood</text>
						</g>
					</g>
				</g>
			</g>
		</g>
	</g>
	<g class="st4">
		<g>
			<g>
				<g>
					<rect x="180.5" y="299.3" class="st0" width="559" height="59.2"/>
					<g>
						<g>
							<text transform="matrix(1 0 0 1 658.3088 321.8118)" class="st5 st6 st7">Color</text>
							<text transform="matrix(1 0 0 1 647.3589 343.2531)" class="st8 st6 st7">#6F9D7B</text>
						</g>
						<g>
							<text transform="matrix(1 0 0 1 216.49 321.8121)" class="st5 st6 st7">Rule Type</text>
							<text transform="matrix(1 0 0 1 219.3081 343.2534)" class="st8 st6 st7">Contains</text>
						</g>
						<g>
							<text transform="matrix(1 0 0 1 431.3272 321.8122)" class="st5 st6 st7">Contains</text>
							<text transform="matrix(1 0 0 1 422.6629 343.2535)" class="st8 st6 st7">Greenwood</text>
						</g>
					</g>
				</g>
			</g>
		</g>
	</g>
	<g class="st4">
		<g>
			<g>
				<g>
					<rect x="180.5" y="210.1" class="st0" width="559" height="59.2"/>
					<g>
						<g>
							<text transform="matrix(1 0 0 1 658.3088 232.6272)" class="st5 st6 st7">Color</text>
							<text transform="matrix(1 0 0 1 647.3589 254.0685)" class="st8 st6 st7">#6F9D7B</text>
						</g>
						<g>
							<text transform="matrix(1 0 0 1 216.49 232.6275)" class="st5 st6 st7">Rule Type</text>
							<text transform="matrix(1 0 0 1 219.3081 254.0688)" class="st8 st6 st7">Contains</text>
						</g>
						<g>
							<text transform="matrix(1 0 0 1 431.3272 232.6276)" class="st5 st6 st7">Contains</text>
							<text transform="matrix(1 0 0 1 422.6629 254.0689)" class="st8 st6 st7">Greenwood</text>
						</g>
					</g>
				</g>
			</g>
		</g>
	</g>
	<g class="st4">
		<g>
			<g>
				<g>
					<rect x="180.5" y="120.9" class="st0" width="559" height="59.2"/>
					<g>
						<g>
							<text transform="matrix(1 0 0 1 658.3088 143.4426)" class="st5 st6 st7">Color</text>
							<text transform="matrix(1 0 0 1 647.3589 164.884)" class="st8 st6 st7">#6F9D7B</text>
						</g>
						<g>
							<text transform="matrix(1 0 0 1 216.49 143.4429)" class="st5 st6 st7">Rule Type</text>
							<text transform="matrix(1 0 0 1 219.3081 164.8843)" class="st8 st6 st7">Contains</text>
						</g>
						<g>
							<text transform="matrix(1 0 0 1 431.3272 143.443)" class="st5 st6 st7">Contains</text>
							<text transform="matrix(1 0 0 1 422.6629 164.8844)" class="st8 st6 st7">Greenwood</text>
						</g>
					</g>
				</g>
			</g>
		</g>
	</g>
</g>
<g transform="translate(0 12)">
	<circle class="st9" cx="96" cy="39" r="4"/>
	<circle class="st10" cx="112" cy="39" r="4"/>
	<circle class="st11" cx="128" cy="39" r="4"/>
	
		<linearGradient id="SVGID_1_" gradientUnits="userSpaceOnUse" x1="-911.7825" y1="175.5" x2="-912.7825" y2="175.5" gradientTransform="matrix(800 0 0 -2 730286 407)">
		<stop  offset="0" style="stop-color:#F6F8FA;stop-opacity:0"/>
		<stop  offset="0.5004" style="stop-color:#E3E7EB"/>
		<stop  offset="1" style="stop-color:#F6F8FA;stop-opacity:0"/>
	</linearGradient>
	<path class="st12" d="M60,55h800v2H60V55z"/>
	<path class="st13" d="M802,37h24v4h-24V37z"/>
</g>
<g class="st3">
	<path class="st14" d="M107,420h706v32H107V420z"/>
	<path class="st15" d="M416,434h88v4h-88V434z"/>
</g>
<g>
	<path class="st16" d="M658.3,422.6H261.7c-26.4,0-48-21.6-48-48V145.4c0-26.4,21.6-48,48-48h396.6c26.4,0,48,21.6,48,48v229.2
		C706.3,401,684.7,422.6,658.3,422.6z"/>
</g>
<text transform="matrix(1 0 0 1 285.408 379.5788)" class="st17 st18 st19">Drag and Drop Your File or Click Here</text>
<path class="st20" d="M516.4,192.5v115.1c0,9.2-7.5,16.7-16.7,16.7h-79.5c-9.2,0-16.7-7.5-16.7-16.7V192.5c0-9.2,7.5-16.7,16.7-16.7
	h79.5C508.9,175.8,516.4,183.3,516.4,192.5z M501.4,211.6h-82.8c-1,0-1.8,0.8-1.8,1.8s0.8,1.8,1.8,1.8h82.7c1,0,1.8-0.8,1.8-1.8
	S502.3,211.6,501.4,211.6z M503.2,231.9c0,1-0.8,1.8-1.8,1.8h-82.8c-1,0-1.8-0.8-1.8-1.8s0.8-1.8,1.8-1.8h82.7
	C502.3,230.1,503.2,230.9,503.2,231.9z M503.2,250.4c0,1-0.8,1.8-1.8,1.8h-82.8c-1,0-1.8-0.8-1.8-1.8s0.8-1.8,1.8-1.8h82.7
	C502.3,248.5,503.2,249.4,503.2,250.4z M503.2,268.8c0,1-0.8,1.8-1.8,1.8h-82.8c-1,0-1.8-0.8-1.8-1.8s0.8-1.8,1.8-1.8h82.7
	C502.3,266.9,503.2,267.8,503.2,268.8z M503.2,287.2c0,1-0.8,1.8-1.8,1.8h-82.8c-1,0-1.8-0.8-1.8-1.8s0.8-1.8,1.8-1.8h82.7
	C502.3,285.4,503.2,286.2,503.2,287.2z M503.2,305.7L503.2,305.7c0,1-0.8,1.8-1.8,1.8h-82.8c-1,0-1.8-0.8-1.8-1.8l0,0
	c0-1,0.8-1.8,1.8-1.8h82.7C502.3,303.9,503.2,304.7,503.2,305.7z"/>
</svg>
