<svg xmlns="http://www.w3.org/2000/svg" viewBox="0 0 50.48 62.65"><title>document</title><polyline points="7 55.65 1 55.65 1 1 43.48 1 43.48 7" style="fill:#fff;stroke:#0066c3;stroke-miterlimit:10;stroke-width:2px"/><path d="M38.79,61.65H8a1,1,0,0,1-1-1V8A1,1,0,0,1,8,7H48.48a1,1,0,0,1,1,1V51a1,1,0,0,1-.29.7L39.5,61.36A1,1,0,0,1,38.79,61.65Z" style="fill:#fff;stroke:#1f2b35;stroke-miterlimit:10;stroke-width:2px"/><polygon points="39.21 61.65 39.21 51.38 49.48 51.38 39.21 61.65" style="fill:#fff;stroke:#1f2b35;stroke-linejoin:round;stroke-width:2px"/><rect x="14.46" y="19.62" width="12.5" height="7.96" style="fill:#fff;stroke:#1f2b35;stroke-miterlimit:10;stroke-width:2px"/><line x1="32.49" y1="19.62" x2="42.01" y2="19.62" style="fill:#fff;stroke:#1f2b35;stroke-miterlimit:10;stroke-width:2px"/><line x1="32.49" y1="23.6" x2="42.01" y2="23.6" style="fill:#fff;stroke:#1f2b35;stroke-miterlimit:10;stroke-width:2px"/><line x1="32.49" y1="27.58" x2="42.01" y2="27.58" style="fill:#fff;stroke:#1f2b35;stroke-miterlimit:10;stroke-width:2px"/><line x1="13.54" y1="37.98" x2="42.01" y2="37.98" style="fill:#fff;stroke:#1f2b35;stroke-miterlimit:10;stroke-width:2px"/><line x1="13.54" y1="42.3" x2="42.01" y2="42.3" style="fill:#fff;stroke:#1f2b35;stroke-miterlimit:10;stroke-width:2px"/><line x1="13.54" y1="46.62" x2="42.01" y2="46.62" style="fill:#fff;stroke:#1f2b35;stroke-miterlimit:10;stroke-width:2px"/></svg>