<svg xmlns="http://www.w3.org/2000/svg" viewBox="0 0 71.74 75.87"><title>settings</title><path d="M65.9,51.86a1,1,0,0,1-.28-.87,19.76,19.76,0,0,0,0-6.39,1,1,0,0,1,.28-.86l4.55-4.56A1,1,0,0,0,70.61,38l-4.29-7.42a1,1,0,0,0-1.12-.47L59,31.75a1,1,0,0,1-.88-.2,20.94,20.94,0,0,0-5.55-3.19,1,1,0,0,1-.61-.67l-1.67-6.23a1,1,0,0,0-1-.74H40.73a1,1,0,0,0-1,.74l-1.67,6.23a1,1,0,0,1-.6.67,20.94,20.94,0,0,0-5.55,3.19,1,1,0,0,1-.88.2l-6.22-1.67a1,1,0,0,0-1.13.47L19.43,38a1,1,0,0,0,.15,1.21l4.56,4.56a1,1,0,0,1,.28.86,19,19,0,0,0,0,6.39,1,1,0,0,1-.28.87l-4.56,4.56a1,1,0,0,0-.15,1.2l4.28,7.43a1,1,0,0,0,1.13.46l6.22-1.66a1,1,0,0,1,.88.19,20.94,20.94,0,0,0,5.55,3.19,1,1,0,0,1,.6.67l1.67,6.23a1,1,0,0,0,1,.74h8.58a1,1,0,0,0,1-.74l1.67-6.23a1,1,0,0,1,.61-.67A20.94,20.94,0,0,0,58.1,64a1,1,0,0,1,.88-.19l6.22,1.66a1,1,0,0,0,1.12-.46l4.29-7.43a1,1,0,0,0-.16-1.2ZM45,55.63a7.83,7.83,0,1,1,7.83-7.83A7.83,7.83,0,0,1,45,55.63Zm0,3.89A11.73,11.73,0,1,1,56.74,47.8,11.73,11.73,0,0,1,45,59.52Z" style="fill:#fff;stroke:#1f2b35;stroke-miterlimit:10;stroke-width:2px"/><path d="M27.81,18.91a.56.56,0,0,1-.16-.49,11.36,11.36,0,0,0,0-3.68.58.58,0,0,1,.16-.5l2.62-2.62a.58.58,0,0,0,.09-.7L28.06,6.65a.6.6,0,0,0-.65-.27l-3.58,1a.56.56,0,0,1-.51-.11A11.61,11.61,0,0,0,20.13,5.4.59.59,0,0,1,19.78,5l-1-3.58A.57.57,0,0,0,18.27,1H13.33a.57.57,0,0,0-.55.43L11.82,5a.59.59,0,0,1-.35.39A11.61,11.61,0,0,0,8.28,7.23a.56.56,0,0,1-.51.11l-3.58-1a.6.6,0,0,0-.65.27L1.08,10.92a.58.58,0,0,0,.09.7l2.62,2.62a.58.58,0,0,1,.16.5,11.36,11.36,0,0,0,0,3.68.56.56,0,0,1-.16.49L1.17,21.53a.58.58,0,0,0-.09.7L3.54,26.5a.57.57,0,0,0,.65.27l3.58-1a.59.59,0,0,1,.51.11,11.9,11.9,0,0,0,3.19,1.84.56.56,0,0,1,.35.38l1,3.59a.57.57,0,0,0,.55.42h4.94a.57.57,0,0,0,.55-.42l1-3.59a.56.56,0,0,1,.35-.38,11.9,11.9,0,0,0,3.19-1.84.59.59,0,0,1,.51-.11l3.58,1a.57.57,0,0,0,.65-.27l2.46-4.27a.58.58,0,0,0-.09-.7Zm-12,2.17a4.51,4.51,0,1,1,4.5-4.5A4.5,4.5,0,0,1,15.8,21.08Z" style="fill:#fff;stroke:#0066c3;stroke-linejoin:round;stroke-width:2px"/></svg>